<svg xmlns="http://www.w3.org/2000/svg" xmlns:xlink="http://www.w3.org/1999/xlink" width="500" zoomAndPan="magnify" viewBox="0 0 375 374.999991" height="500" preserveAspectRatio="xMidYMid meet" version="1.0"><defs><g/><clipPath id="c22a0ec856"><rect x="0" width="113" y="0" height="17"/></clipPath><clipPath id="a1b13bd862"><path d="M 168.863281 231.753906 L 180.933594 231.753906 L 180.933594 242.339844 L 168.863281 242.339844 Z M 168.863281 231.753906 " clip-rule="nonzero"/></clipPath><clipPath id="b176709fac"><path d="M 169.34375 233.480469 C 168.363281 235.089844 169.054688 236.65625 169.917969 237.488281 L 174.976562 242.339844 L 179.925781 237.503906 C 180.730469 236.609375 181.039062 235.660156 180.871094 234.605469 C 180.632812 233.144531 179.429688 232.007812 177.941406 231.847656 C 177.027344 231.75 176.144531 232.007812 175.457031 232.578125 C 175.273438 232.734375 175.109375 232.90625 174.964844 233.09375 C 174.792969 232.878906 174.589844 232.683594 174.363281 232.511719 C 173.574219 231.910156 172.566406 231.671875 171.597656 231.855469 C 170.683594 232.035156 169.859375 232.625 169.34375 233.480469 Z M 169.34375 233.480469 " clip-rule="nonzero"/></clipPath><clipPath id="349a403256"><path d="M 0.863281 0.753906 L 12.933594 0.753906 L 12.933594 11.339844 L 0.863281 11.339844 Z M 0.863281 0.753906 " clip-rule="nonzero"/></clipPath><clipPath id="793b7361e5"><path d="M 1.34375 2.480469 C 0.363281 4.089844 1.054688 5.65625 1.917969 6.488281 L 6.976562 11.339844 L 11.925781 6.503906 C 12.730469 5.609375 13.039062 4.660156 12.871094 3.605469 C 12.632812 2.144531 11.429688 1.007812 9.941406 0.847656 C 9.027344 0.75 8.144531 1.007812 7.457031 1.578125 C 7.273438 1.734375 7.109375 1.90625 6.964844 2.09375 C 6.792969 1.878906 6.589844 1.683594 6.363281 1.511719 C 5.574219 0.910156 4.566406 0.671875 3.597656 0.855469 C 2.683594 1.035156 1.859375 1.625 1.34375 2.480469 Z M 1.34375 2.480469 " clip-rule="nonzero"/></clipPath><clipPath id="26acee3ecb"><rect x="0" width="13" y="0" height="12"/></clipPath><clipPath id="15d1375e8b"><path d="M 150.796875 135.480469 L 218.296875 135.480469 L 218.296875 190.980469 L 150.796875 190.980469 Z M 150.796875 135.480469 " clip-rule="nonzero"/></clipPath><clipPath id="c831eb12d5"><rect x="0" width="315" y="0" height="44"/></clipPath></defs><rect x="-37.5" width="450" fill="#ffffff" y="-37.499999" height="449.999989" fill-opacity="1"/><rect x="-37.5" width="450" fill="#000000" y="-37.499999" height="449.999989" fill-opacity="1"/><g transform="matrix(1, 0, 0, 1, 132, 229)"><g clip-path="url(#c22a0ec856)"><g fill="#ffffff" fill-opacity="1"><g transform="translate(1.088677, 12.786432)"><g><path d="M 4.84375 -9.359375 L 5.5 -9.359375 L 6.90625 -5.9375 L 8.3125 -9.359375 L 8.984375 -9.359375 L 7.328125 -5.390625 L 9.296875 -0.796875 L 12.90625 -9.421875 L 13.65625 -9.421875 L 9.625 0 L 9 0 L 6.921875 -4.84375 L 4.84375 0 L 4.21875 0 L 0.203125 -9.421875 L 0.921875 -9.421875 L 4.546875 -0.796875 L 6.5 -5.390625 Z M 4.84375 -9.359375 "/></g></g></g><g fill="#ffffff" fill-opacity="1"><g transform="translate(16.923748, 12.786432)"><g><path d="M 1.234375 0 L 1.234375 -9.421875 L 1.90625 -9.421875 L 1.90625 0 Z M 1.234375 0 "/></g></g></g><g fill="#ffffff" fill-opacity="1"><g transform="translate(22.060542, 12.786432)"><g><path d="M 1.234375 0 L 1.234375 -9.421875 L 5.140625 -9.421875 C 5.546875 -9.421875 5.914062 -9.335938 6.25 -9.171875 C 6.582031 -9.003906 6.867188 -8.78125 7.109375 -8.5 C 7.359375 -8.21875 7.550781 -7.90625 7.6875 -7.5625 C 7.820312 -7.21875 7.890625 -6.863281 7.890625 -6.5 C 7.890625 -6.03125 7.796875 -5.59375 7.609375 -5.1875 C 7.421875 -4.78125 7.160156 -4.4375 6.828125 -4.15625 C 6.503906 -3.882812 6.117188 -3.71875 5.671875 -3.65625 L 8.03125 0 L 7.25 0 L 4.96875 -3.5625 L 1.90625 -3.5625 L 1.90625 0 Z M 1.90625 -4.171875 L 5.21875 -4.171875 C 5.625 -4.171875 5.972656 -4.28125 6.265625 -4.5 C 6.566406 -4.726562 6.800781 -5.019531 6.96875 -5.375 C 7.132812 -5.726562 7.21875 -6.101562 7.21875 -6.5 C 7.21875 -6.90625 7.117188 -7.28125 6.921875 -7.625 C 6.734375 -7.976562 6.484375 -8.265625 6.171875 -8.484375 C 5.859375 -8.703125 5.507812 -8.8125 5.125 -8.8125 L 1.90625 -8.8125 Z M 1.90625 -4.171875 "/></g></g></g><g fill="#ffffff" fill-opacity="1"><g transform="translate(32.677501, 12.786432)"><g/></g></g><g fill="#ffffff" fill-opacity="1"><g transform="translate(38.079767, 12.786432)"><g/></g></g><g fill="#ffffff" fill-opacity="1"><g transform="translate(43.482032, 12.786432)"><g/></g></g><g fill="#ffffff" fill-opacity="1"><g transform="translate(48.884298, 12.786432)"><g/></g></g><g fill="#ffffff" fill-opacity="1"><g transform="translate(54.298411, 12.786432)"><g><path d="M 8.53125 -9.421875 L 8.53125 0 L 7.859375 0 L 7.859375 -4.515625 L 1.90625 -4.515625 L 1.90625 0 L 1.234375 0 L 1.234375 -9.421875 L 1.90625 -9.421875 L 1.90625 -5.125 L 7.859375 -5.125 L 7.859375 -9.421875 Z M 8.53125 -9.421875 "/></g></g></g><g fill="#ffffff" fill-opacity="1"><g transform="translate(66.045308, 12.786432)"><g><path d="M 5.03125 0.0625 C 4.28125 0.0625 3.648438 -0.0664062 3.140625 -0.328125 C 2.640625 -0.597656 2.238281 -0.957031 1.9375 -1.40625 C 1.632812 -1.863281 1.414062 -2.375 1.28125 -2.9375 C 1.15625 -3.507812 1.09375 -4.09375 1.09375 -4.6875 L 1.09375 -9.421875 L 1.765625 -9.421875 L 1.765625 -4.6875 C 1.765625 -4.164062 1.816406 -3.65625 1.921875 -3.15625 C 2.023438 -2.664062 2.195312 -2.222656 2.4375 -1.828125 C 2.6875 -1.441406 3.019531 -1.132812 3.4375 -0.90625 C 3.863281 -0.675781 4.390625 -0.5625 5.015625 -0.5625 C 5.648438 -0.5625 6.175781 -0.679688 6.59375 -0.921875 C 7.019531 -1.160156 7.351562 -1.472656 7.59375 -1.859375 C 7.832031 -2.253906 8.003906 -2.695312 8.109375 -3.1875 C 8.210938 -3.675781 8.265625 -4.175781 8.265625 -4.6875 L 8.265625 -9.421875 L 8.9375 -9.421875 L 8.9375 -4.6875 C 8.9375 -4.050781 8.867188 -3.445312 8.734375 -2.875 C 8.597656 -2.3125 8.375 -1.804688 8.0625 -1.359375 C 7.75 -0.921875 7.34375 -0.570312 6.84375 -0.3125 C 6.351562 -0.0625 5.75 0.0625 5.03125 0.0625 Z M 5.03125 0.0625 "/></g></g></g><g fill="#ffffff" fill-opacity="1"><g transform="translate(78.070942, 12.786432)"><g><path d="M 1.90625 -8.15625 L 1.90625 0 L 1.234375 0 L 1.234375 -9.421875 L 1.796875 -9.421875 L 8.359375 -1.125 L 8.359375 -9.421875 L 9.03125 -9.421875 L 9.03125 0 L 8.375 0 Z M 1.90625 -8.15625 "/></g></g></g><g fill="#ffffff" fill-opacity="1"><g transform="translate(90.322224, 12.786432)"><g><path d="M 1.234375 0 L 1.234375 -9.421875 L 4.359375 -9.421875 C 5.359375 -9.421875 6.1875 -9.207031 6.84375 -8.78125 C 7.507812 -8.363281 8.003906 -7.796875 8.328125 -7.078125 C 8.660156 -6.367188 8.828125 -5.582031 8.828125 -4.71875 C 8.828125 -3.769531 8.644531 -2.941406 8.28125 -2.234375 C 7.925781 -1.523438 7.410156 -0.972656 6.734375 -0.578125 C 6.066406 -0.191406 5.273438 0 4.359375 0 Z M 8.15625 -4.71875 C 8.15625 -5.507812 8.003906 -6.210938 7.703125 -6.828125 C 7.410156 -7.453125 6.984375 -7.9375 6.421875 -8.28125 C 5.859375 -8.632812 5.171875 -8.8125 4.359375 -8.8125 L 1.90625 -8.8125 L 1.90625 -0.609375 L 4.359375 -0.609375 C 5.179688 -0.609375 5.875 -0.789062 6.4375 -1.15625 C 7.007812 -1.519531 7.4375 -2.007812 7.71875 -2.625 C 8.007812 -3.25 8.15625 -3.945312 8.15625 -4.71875 Z M 8.15625 -4.71875 "/></g></g></g><g fill="#ffffff" fill-opacity="1"><g transform="translate(101.777104, 12.786432)"><g><path d="M 7.515625 -0.609375 L 7.515625 0 L 1.234375 0 L 1.234375 -9.421875 L 7.390625 -9.421875 L 7.390625 -8.8125 L 1.90625 -8.8125 L 1.90625 -5.109375 L 6.703125 -5.109375 L 6.703125 -4.53125 L 1.90625 -4.53125 L 1.90625 -0.609375 Z M 7.515625 -0.609375 "/></g></g></g></g></g><g clip-path="url(#a1b13bd862)"><g clip-path="url(#b176709fac)"><g transform="matrix(1, 0, 0, 1, 168, 231)"><g clip-path="url(#26acee3ecb)"><g clip-path="url(#349a403256)"><g clip-path="url(#793b7361e5)"><path fill="#ffffff" d="M 0.863281 0.796875 L 12.933594 0.796875 L 12.933594 11.339844 L 0.863281 11.339844 Z M 0.863281 0.796875 " fill-opacity="1" fill-rule="nonzero"/></g></g></g></g></g></g><g clip-path="url(#15d1375e8b)"><path fill="#ffffff" d="M 178.824219 135.480469 L 181.691406 135.480469 C 182.207031 135.539062 182.722656 135.59375 183.238281 135.644531 C 186.945312 136.023438 190.507812 137.375 193.398438 139.792969 C 193.664062 140.015625 193.960938 140.351562 194.265625 140.609375 C 194.300781 140.640625 194.339844 140.65625 194.386719 140.65625 C 194.894531 140.675781 195.445312 140.636719 195.914062 140.769531 C 197.582031 141.246094 198.753906 142.683594 198.960938 144.394531 C 198.96875 144.445312 198.96875 144.792969 198.960938 145.4375 C 198.949219 146.671875 199.519531 147.609375 200.671875 148.253906 C 201.949219 148.964844 203.183594 149.507812 204.375 149.878906 C 206.886719 150.660156 209.417969 151.367188 211.972656 151.992188 C 213.109375 152.269531 213.90625 152.40625 214.367188 152.398438 C 215.796875 152.371094 217.144531 152.523438 217.71875 153.976562 C 217.878906 154.382812 218.019531 155.175781 218.140625 156.359375 L 218.140625 157.652344 C 218.003906 159.140625 217.433594 160.011719 216.640625 161.109375 C 216.613281 161.144531 216.601562 161.1875 216.597656 161.230469 C 216.539062 163.175781 216.234375 164.800781 214.886719 166.230469 C 214.207031 166.957031 213.171875 167.511719 212.246094 167.964844 C 212.140625 168.015625 212.078125 168.101562 212.058594 168.21875 C 211.496094 171.492188 208.886719 173.917969 205.59375 174.292969 C 204.941406 174.367188 204.347656 174.484375 203.644531 174.351562 C 203.453125 174.316406 203.203125 174.292969 202.898438 174.289062 C 202.539062 174.277344 202.210938 174.167969 201.886719 174.152344 C 199.378906 174.046875 197.011719 174.03125 194.691406 174.449219 C 191.601562 175.007812 187.847656 177.042969 186.714844 180.121094 C 186.601562 180.425781 186.539062 180.785156 186.519531 181.199219 C 186.464844 182.472656 186.457031 183.425781 186.054688 184.535156 C 185.246094 186.757812 184.199219 188.863281 182.90625 190.84375 C 182.898438 190.859375 182.886719 190.859375 182.871094 190.855469 C 182.855469 190.847656 182.851562 190.835938 182.855469 190.820312 C 183.859375 187.757812 184.738281 184.636719 184.921875 181.398438 C 184.960938 180.75 185.03125 180.25 185.132812 179.90625 C 185.777344 177.757812 187.65625 175.878906 189.527344 174.726562 C 191.242188 173.667969 193.179688 173 195.335938 172.722656 C 197.792969 172.410156 200.082031 172.363281 202.207031 172.582031 C 203.429688 172.710938 204.351562 172.761719 204.972656 172.734375 C 207.554688 172.621094 210.238281 170.792969 210.457031 168.054688 C 210.472656 167.871094 210.402344 167.824219 210.242188 167.914062 C 207.257812 169.589844 203.402344 171.300781 199.945312 170.839844 C 198.671875 170.667969 197.460938 170.300781 196.3125 169.730469 C 194.988281 169.082031 194.023438 168.605469 193.410156 168.3125 C 191.050781 167.175781 188.15625 167.105469 185.902344 168.523438 C 185.878906 168.539062 185.859375 168.539062 185.839844 168.515625 C 185.824219 168.492188 185.828125 168.46875 185.851562 168.453125 C 188.199219 166.269531 191.734375 166.089844 194.523438 167.464844 C 196.160156 168.277344 197.800781 169.152344 199.378906 169.519531 C 202.960938 170.351562 206.957031 168.964844 210.109375 167.277344 C 211.058594 166.769531 212.015625 166.269531 212.972656 165.777344 C 214.359375 165.0625 215.050781 163.121094 215.003906 161.675781 C 214.992188 161.351562 214.828125 161.0625 214.507812 160.808594 C 213.597656 160.09375 212.636719 159.457031 211.621094 158.898438 C 210.957031 158.535156 210.464844 158.03125 210.203125 157.308594 C 209.550781 155.507812 210.859375 154.773438 212.105469 153.886719 C 212.277344 153.761719 212.261719 153.675781 212.054688 153.628906 C 209.09375 152.914062 206.15625 152.085938 203.238281 151.152344 C 202.265625 150.835938 201.28125 150.394531 200.277344 149.816406 C 198.554688 148.824219 197.453125 147.785156 197.445312 145.789062 C 197.445312 145.027344 197.441406 144.640625 197.441406 144.640625 C 197.214844 143.019531 195.96875 142.035156 194.324219 142.265625 C 194.273438 142.273438 194.257812 142.300781 194.285156 142.351562 C 194.410156 142.570312 194.449219 142.808594 194.398438 143.066406 C 194.394531 143.085938 194.398438 143.105469 194.410156 143.121094 L 194.457031 143.210938 C 194.464844 143.238281 194.457031 143.257812 194.433594 143.273438 C 194.40625 143.289062 194.386719 143.285156 194.367188 143.261719 C 192.558594 140.195312 188.695312 138.292969 185.34375 137.570312 C 183.410156 137.15625 181.871094 137.058594 179.925781 137.070312 C 179.046875 137.078125 178.324219 137.117188 177.761719 137.195312 C 176.417969 137.382812 175.109375 137.734375 173.839844 138.25 C 173.558594 138.363281 173.09375 138.429688 172.445312 138.445312 C 171.800781 138.464844 170.800781 138.3125 170.085938 138.425781 C 168.933594 138.605469 167.984375 139.128906 167.234375 139.992188 C 167.015625 140.246094 166.777344 140.628906 166.519531 141.136719 C 165.996094 142.171875 165.496094 143.140625 164.660156 144.0625 C 164.359375 144.390625 163.847656 144.878906 163.125 145.523438 C 161.21875 147.222656 159.339844 148.960938 157.496094 150.730469 C 156.511719 151.675781 153.675781 154.5625 155.5 155.894531 C 156.46875 156.601562 157.246094 157.464844 157.832031 158.488281 C 158.265625 159.246094 158.839844 160.398438 159.402344 161.199219 C 161.453125 164.105469 164.4375 166.65625 167.355469 168.664062 C 168.152344 169.210938 169.160156 169.785156 169.9375 170.097656 C 172.476562 171.113281 174.914062 169.636719 176.203125 167.472656 C 177.261719 165.695312 177.859375 163.675781 178 161.410156 C 178.144531 159.042969 177.863281 156.730469 177.160156 154.46875 C 176.734375 153.09375 176.164062 151.453125 175.449219 149.542969 C 175.007812 148.367188 174.757812 147.117188 174.695312 145.785156 C 174.671875 145.316406 174.765625 144.828125 174.808594 144.332031 C 174.964844 142.488281 176.058594 140.691406 177.425781 139.472656 C 177.4375 139.460938 177.449219 139.460938 177.464844 139.46875 C 177.476562 139.480469 177.480469 139.496094 177.472656 139.511719 C 176.359375 141.617188 175.753906 144.234375 176.117188 146.613281 C 176.347656 148.121094 177.15625 150.0625 177.699219 151.738281 C 179.0625 155.949219 179.308594 160.230469 178.429688 164.578125 C 178.050781 166.449219 177.222656 168.480469 175.894531 169.800781 C 174.46875 171.230469 172.617188 171.789062 170.34375 171.476562 C 169.285156 171.335938 168.578125 171.117188 167.617188 170.554688 C 165.121094 169.097656 162.851562 167.289062 160.808594 165.132812 C 160.773438 165.097656 160.734375 165.085938 160.683594 165.097656 C 160.636719 165.109375 160.605469 165.140625 160.59375 165.1875 C 159.648438 168.675781 158.496094 172.121094 157.136719 175.523438 C 155.261719 180.226562 153.226562 184.941406 150.898438 189.441406 C 150.882812 189.46875 150.863281 189.46875 150.847656 189.445312 C 150.835938 189.429688 150.835938 189.410156 150.847656 189.386719 C 153.785156 182.027344 156.375 174.476562 158.253906 166.773438 C 158.523438 165.660156 158.753906 164.5625 158.941406 163.484375 C 158.96875 163.335938 158.933594 163.203125 158.839844 163.085938 C 157.945312 161.992188 157.3125 160.792969 156.605469 159.5625 C 156.023438 158.554688 155.429688 157.859375 154.601562 157.148438 C 154.152344 156.765625 153.871094 156.480469 153.746094 156.285156 C 153.234375 155.476562 153.324219 154.628906 153.539062 153.738281 C 153.84375 152.464844 154.992188 151.054688 155.921875 150.152344 C 157.976562 148.152344 160.070312 146.191406 162.195312 144.261719 C 163.183594 143.371094 164.148438 142.414062 164.636719 141.410156 C 165.054688 140.550781 165.457031 139.621094 166.078125 138.941406 C 167.207031 137.699219 168.613281 136.976562 170.300781 136.773438 C 170.949219 136.695312 171.773438 136.832031 172.535156 136.8125 C 173.539062 136.789062 174.605469 136.25 175.574219 136.003906 C 176.34375 135.808594 176.964844 135.6875 177.445312 135.640625 C 178.15625 135.574219 178.617188 135.519531 178.824219 135.480469 Z M 216.328125 158.625 C 216.367188 158.492188 216.410156 158.363281 216.453125 158.234375 C 216.503906 158.09375 216.53125 157.960938 216.542969 157.84375 C 216.640625 156.878906 216.574219 155.878906 216.34375 154.84375 C 216.273438 154.511719 216.15625 154.226562 215.800781 154.144531 C 215.09375 153.980469 214.40625 154.011719 213.683594 153.957031 C 213.234375 153.925781 213.003906 154.03125 212.648438 154.253906 C 212.027344 154.644531 210.722656 155.417969 210.664062 156.144531 C 210.582031 157.195312 211.019531 157.910156 211.980469 158.292969 C 212.457031 158.484375 212.902344 158.460938 213.3125 158.226562 C 213.863281 157.910156 213.730469 157.085938 213.957031 156.546875 C 214.328125 155.679688 215.226562 155.753906 215.574219 156.578125 C 215.960938 157.5 215.785156 158.445312 215.675781 159.445312 C 215.671875 159.484375 215.6875 159.511719 215.722656 159.527344 C 215.757812 159.546875 215.789062 159.539062 215.816406 159.511719 C 216.058594 159.269531 216.230469 158.972656 216.328125 158.625 Z M 214.769531 159.480469 C 214.839844 159.480469 214.90625 159.449219 214.972656 159.378906 C 215.039062 159.3125 215.101562 159.214844 215.152344 159.085938 C 215.207031 158.960938 215.25 158.8125 215.28125 158.644531 C 215.3125 158.476562 215.332031 158.300781 215.335938 158.117188 C 215.339844 157.9375 215.332031 157.761719 215.3125 157.589844 C 215.289062 157.421875 215.257812 157.273438 215.210938 157.140625 C 215.164062 157.011719 215.109375 156.910156 215.046875 156.839844 C 214.984375 156.765625 214.921875 156.730469 214.851562 156.726562 C 214.78125 156.726562 214.710938 156.757812 214.644531 156.828125 C 214.578125 156.894531 214.519531 156.992188 214.464844 157.121094 C 214.414062 157.246094 214.371094 157.394531 214.339844 157.5625 C 214.308594 157.730469 214.289062 157.90625 214.28125 158.085938 C 214.277344 158.269531 214.285156 158.445312 214.308594 158.613281 C 214.328125 158.785156 214.363281 158.933594 214.410156 159.066406 C 214.453125 159.195312 214.507812 159.296875 214.570312 159.367188 C 214.632812 159.441406 214.699219 159.476562 214.769531 159.480469 Z M 214.769531 159.480469 " fill-opacity="1" fill-rule="nonzero"/></g><path fill="#ffffff" d="M 187.519531 149.875 C 187.476562 149.921875 187.476562 149.96875 187.527344 150.011719 C 188.214844 150.605469 188.980469 151.058594 189.828125 151.375 C 190.980469 151.808594 192.230469 151.761719 193.578125 151.234375 C 193.582031 151.230469 193.585938 151.234375 193.589844 151.234375 C 193.59375 151.238281 193.597656 151.242188 193.59375 151.25 C 193.578125 151.378906 193.515625 151.488281 193.410156 151.578125 C 192.253906 152.550781 190.6875 152.625 189.308594 152.1875 C 187.863281 151.730469 186.816406 150.652344 185.242188 150.511719 C 185.226562 150.507812 185.214844 150.5 185.210938 150.484375 C 185.207031 150.464844 185.210938 150.453125 185.226562 150.445312 C 186.183594 149.828125 187.035156 149.085938 187.785156 148.21875 C 188.382812 147.523438 189.4375 146.683594 190.292969 146.46875 C 192.4375 145.921875 192.902344 148.429688 194.234375 149.371094 C 194.5625 149.601562 194.933594 149.769531 195.355469 149.871094 C 195.390625 149.875 195.40625 149.898438 195.40625 149.933594 C 195.402344 149.96875 195.382812 149.988281 195.347656 149.992188 C 195.011719 150.039062 194.664062 150.152344 194.363281 150.15625 C 192.878906 150.175781 192.753906 148.765625 191.804688 148.011719 C 190.367188 146.871094 188.414062 148.9375 187.519531 149.875 Z M 187.519531 149.875 " fill-opacity="1" fill-rule="nonzero"/><path fill="#ffffff" d="M 167.351562 151.890625 C 167.40625 151.683594 167.460938 151.480469 167.519531 151.277344 C 167.523438 151.253906 167.539062 151.242188 167.5625 151.246094 C 167.585938 151.246094 167.597656 151.261719 167.601562 151.285156 C 167.660156 152.160156 167.488281 153.042969 167.484375 153.859375 C 167.480469 154.929688 167.34375 156.050781 167.34375 157.039062 C 167.34375 157.867188 167.34375 158.691406 167.34375 159.507812 C 167.34375 159.523438 167.332031 159.53125 167.316406 159.535156 C 167.300781 159.539062 167.289062 159.53125 167.28125 159.515625 C 166.480469 157.132812 166.449219 154.75 167.183594 152.359375 C 167.183594 152.351562 167.195312 152.296875 167.21875 152.191406 C 167.242188 152.074219 167.320312 152.003906 167.351562 151.890625 Z M 167.351562 151.890625 " fill-opacity="1" fill-rule="nonzero"/><path fill="#ffffff" d="M 166.054688 165.601562 C 166.085938 165.632812 166.105469 165.660156 166.117188 165.683594 C 166.128906 165.707031 166.121094 165.730469 166.101562 165.746094 C 166.078125 165.765625 166.054688 165.765625 166.035156 165.75 C 164.160156 164.449219 162.621094 162.855469 161.417969 160.972656 C 161.054688 160.402344 160.597656 159.566406 160.054688 158.46875 C 159.101562 156.550781 157.71875 155.261719 155.980469 154.0625 C 155.960938 154.046875 155.945312 154.03125 155.933594 154.011719 C 155.914062 153.984375 155.90625 153.960938 155.898438 153.949219 C 155.890625 153.925781 155.894531 153.90625 155.910156 153.890625 C 155.925781 153.871094 155.941406 153.863281 155.964844 153.867188 C 161.113281 154.789062 163.265625 159.09375 165.011719 163.464844 C 165.3125 164.207031 165.640625 164.851562 165.996094 165.527344 C 166.011719 165.554688 166.03125 165.578125 166.054688 165.601562 Z M 166.054688 165.601562 " fill-opacity="1" fill-rule="nonzero"/><path fill="#ffffff" d="M 175.558594 188.957031 C 175.203125 188.628906 174.828125 188.222656 174.441406 187.742188 C 171.367188 183.945312 169.75 179.332031 169.316406 174.5 C 169.3125 174.484375 169.320312 174.472656 169.335938 174.46875 C 169.351562 174.464844 169.363281 174.46875 169.371094 174.480469 C 172.0625 179.046875 174.429688 183.683594 175.613281 188.925781 C 175.628906 188.996094 175.609375 189.007812 175.558594 188.957031 Z M 175.558594 188.957031 " fill-opacity="1" fill-rule="nonzero"/><g transform="matrix(1, 0, 0, 1, 30, 186)"><g clip-path="url(#c831eb12d5)"><g fill="#ffffff" fill-opacity="1"><g transform="translate(0.956831, 34.217413)"><g><path d="M 23.6875 -25.921875 L 23.6875 0 L 21.171875 0 L 21.171875 -12.125 L 5.796875 -12.125 L 5.796875 0 L 3.25 0 L 3.25 -25.921875 L 5.796875 -25.921875 L 5.796875 -14.375 L 21.171875 -14.375 L 21.171875 -25.921875 Z M 23.6875 -25.921875 "/></g></g></g><g fill="#ffffff" fill-opacity="1"><g transform="translate(28.259883, 34.217413)"><g><path d="M 2.5625 -7.84375 L 2.5625 -19.015625 L 5.03125 -19.015625 L 5.03125 -8.28125 C 5.03125 -6.113281 5.398438 -4.492188 6.140625 -3.421875 C 6.890625 -2.359375 7.992188 -1.828125 9.453125 -1.828125 C 10.421875 -1.828125 11.363281 -2.039062 12.28125 -2.46875 C 13.195312 -2.894531 14.003906 -3.5 14.703125 -4.28125 C 15.410156 -5.070312 15.945312 -5.992188 16.3125 -7.046875 L 16.3125 -19.015625 L 18.796875 -19.015625 L 18.796875 -3 C 18.796875 -2.65625 18.867188 -2.398438 19.015625 -2.234375 C 19.160156 -2.078125 19.378906 -1.988281 19.671875 -1.96875 L 19.671875 0 C 19.378906 0.0195312 19.144531 0.0351562 18.96875 0.046875 C 18.800781 0.0664062 18.644531 0.078125 18.5 0.078125 C 18.019531 0.0234375 17.601562 -0.164062 17.25 -0.5 C 16.894531 -0.84375 16.707031 -1.257812 16.6875 -1.75 L 16.609375 -4.3125 C 15.773438 -2.84375 14.644531 -1.695312 13.21875 -0.875 C 11.800781 -0.0507812 10.265625 0.359375 8.609375 0.359375 C 6.617188 0.359375 5.113281 -0.332031 4.09375 -1.71875 C 3.070312 -3.101562 2.5625 -5.144531 2.5625 -7.84375 Z M 2.5625 -7.84375 "/></g></g></g><g fill="#ffffff" fill-opacity="1"><g transform="translate(50.306723, 34.217413)"><g><path d="M 18.71875 0 L 16.25 0 L 16.25 -10.625 C 16.25 -12.863281 15.914062 -14.5 15.25 -15.53125 C 14.59375 -16.5625 13.5625 -17.078125 12.15625 -17.078125 C 11.175781 -17.078125 10.210938 -16.835938 9.265625 -16.359375 C 8.316406 -15.890625 7.484375 -15.25 6.765625 -14.4375 C 6.046875 -13.625 5.53125 -12.691406 5.21875 -11.640625 L 5.21875 0 L 2.734375 0 L 2.734375 -19.015625 L 5 -19.015625 L 5 -14.703125 C 5.507812 -15.628906 6.175781 -16.4375 7 -17.125 C 7.832031 -17.820312 8.769531 -18.363281 9.8125 -18.75 C 10.863281 -19.144531 11.945312 -19.34375 13.0625 -19.34375 C 14.113281 -19.34375 15.003906 -19.144531 15.734375 -18.75 C 16.460938 -18.363281 17.046875 -17.8125 17.484375 -17.09375 C 17.921875 -16.382812 18.234375 -15.523438 18.421875 -14.515625 C 18.617188 -13.503906 18.71875 -12.375 18.71875 -11.125 Z M 18.71875 0 "/></g></g></g><g fill="#ffffff" fill-opacity="1"><g transform="translate(71.952051, 34.217413)"><g><path d="M 1.453125 -9.453125 C 1.453125 -11.253906 1.820312 -12.898438 2.5625 -14.390625 C 3.3125 -15.890625 4.34375 -17.085938 5.65625 -17.984375 C 6.96875 -18.890625 8.460938 -19.34375 10.140625 -19.34375 C 11.722656 -19.34375 13.140625 -18.921875 14.390625 -18.078125 C 15.648438 -17.242188 16.632812 -16.226562 17.34375 -15.03125 L 17.34375 -26.640625 L 19.8125 -26.640625 L 19.8125 -3 C 19.8125 -2.65625 19.882812 -2.398438 20.03125 -2.234375 C 20.175781 -2.078125 20.398438 -1.988281 20.703125 -1.96875 L 20.703125 0 C 20.210938 0.0703125 19.832031 0.0976562 19.5625 0.078125 C 19.050781 0.046875 18.597656 -0.160156 18.203125 -0.546875 C 17.816406 -0.929688 17.625 -1.359375 17.625 -1.828125 L 17.625 -3.6875 C 16.875 -2.445312 15.851562 -1.460938 14.5625 -0.734375 C 13.269531 -0.00390625 11.929688 0.359375 10.546875 0.359375 C 9.234375 0.359375 8.019531 0.09375 6.90625 -0.4375 C 5.800781 -0.96875 4.84375 -1.695312 4.03125 -2.625 C 3.21875 -3.550781 2.582031 -4.601562 2.125 -5.78125 C 1.675781 -6.96875 1.453125 -8.191406 1.453125 -9.453125 Z M 17.34375 -6.53125 L 17.34375 -12.40625 C 17.019531 -13.28125 16.503906 -14.078125 15.796875 -14.796875 C 15.097656 -15.515625 14.300781 -16.085938 13.40625 -16.515625 C 12.519531 -16.941406 11.640625 -17.15625 10.765625 -17.15625 C 9.742188 -17.15625 8.816406 -16.941406 7.984375 -16.515625 C 7.160156 -16.085938 6.453125 -15.507812 5.859375 -14.78125 C 5.265625 -14.050781 4.804688 -13.222656 4.484375 -12.296875 C 4.171875 -11.367188 4.015625 -10.421875 4.015625 -9.453125 C 4.015625 -8.429688 4.191406 -7.457031 4.546875 -6.53125 C 4.898438 -5.601562 5.40625 -4.78125 6.0625 -4.0625 C 6.71875 -3.351562 7.46875 -2.800781 8.3125 -2.40625 C 9.164062 -2.019531 10.09375 -1.828125 11.09375 -1.828125 C 11.726562 -1.828125 12.382812 -1.945312 13.0625 -2.1875 C 13.75 -2.4375 14.398438 -2.769531 15.015625 -3.1875 C 15.640625 -3.613281 16.15625 -4.117188 16.5625 -4.703125 C 16.976562 -5.285156 17.238281 -5.894531 17.34375 -6.53125 Z M 17.34375 -6.53125 "/></g></g></g><g fill="#ffffff" fill-opacity="1"><g transform="translate(95.02094, 34.217413)"><g><path d="M 10.953125 0.359375 C 9.585938 0.359375 8.320312 0.0976562 7.15625 -0.421875 C 5.988281 -0.941406 4.976562 -1.65625 4.125 -2.5625 C 3.269531 -3.476562 2.601562 -4.53125 2.125 -5.71875 C 1.65625 -6.914062 1.421875 -8.195312 1.421875 -9.5625 C 1.421875 -11.34375 1.828125 -12.972656 2.640625 -14.453125 C 3.460938 -15.941406 4.585938 -17.128906 6.015625 -18.015625 C 7.453125 -18.898438 9.082031 -19.34375 10.90625 -19.34375 C 12.78125 -19.34375 14.414062 -18.890625 15.8125 -17.984375 C 17.21875 -17.085938 18.320312 -15.90625 19.125 -14.4375 C 19.925781 -12.96875 20.328125 -11.351562 20.328125 -9.59375 C 20.328125 -9.40625 20.328125 -9.21875 20.328125 -9.03125 C 20.328125 -8.851562 20.316406 -8.710938 20.296875 -8.609375 L 4.015625 -8.609375 C 4.140625 -7.242188 4.519531 -6.03125 5.15625 -4.96875 C 5.800781 -3.914062 6.640625 -3.078125 7.671875 -2.453125 C 8.710938 -1.835938 9.84375 -1.53125 11.0625 -1.53125 C 12.300781 -1.53125 13.472656 -1.847656 14.578125 -2.484375 C 15.691406 -3.117188 16.46875 -3.945312 16.90625 -4.96875 L 19.046875 -4.375 C 18.660156 -3.476562 18.066406 -2.664062 17.265625 -1.9375 C 16.460938 -1.207031 15.519531 -0.640625 14.4375 -0.234375 C 13.351562 0.160156 12.191406 0.359375 10.953125 0.359375 Z M 3.9375 -10.40625 L 18 -10.40625 C 17.894531 -11.789062 17.519531 -13.003906 16.875 -14.046875 C 16.226562 -15.097656 15.390625 -15.921875 14.359375 -16.515625 C 13.328125 -17.109375 12.191406 -17.40625 10.953125 -17.40625 C 9.710938 -17.40625 8.578125 -17.109375 7.546875 -16.515625 C 6.523438 -15.921875 5.691406 -15.09375 5.046875 -14.03125 C 4.410156 -12.976562 4.039062 -11.769531 3.9375 -10.40625 Z M 3.9375 -10.40625 "/></g></g></g><g fill="#ffffff" fill-opacity="1"><g transform="translate(116.812764, 34.217413)"><g><path d="M 2.703125 0 L 2.703125 -25.921875 L 20.109375 -25.921875 L 20.109375 -21.5 L 7.734375 -21.5 L 7.734375 -14.8125 L 18.03125 -14.8125 L 18.03125 -10.734375 L 7.734375 -10.734375 L 7.734375 0 Z M 2.703125 0 "/></g></g></g><g fill="#ffffff" fill-opacity="1"><g transform="translate(138.129582, 34.217413)"><g><path d="M 9.75 -25.921875 L 14.859375 -25.921875 L 24.375 0 L 19.203125 0 L 16.796875 -6.453125 L 7.734375 -6.453125 L 5.359375 0 L 0.1875 0 Z M 15.875 -10 L 12.296875 -20.703125 L 8.578125 -10 Z M 15.875 -10 "/></g></g></g><g fill="#ffffff" fill-opacity="1"><g transform="translate(163.023543, 34.217413)"><g><path d="M 2.703125 0 L 2.703125 -25.921875 L 7.734375 -25.921875 L 7.734375 0 Z M 2.703125 0 "/></g></g></g><g fill="#ffffff" fill-opacity="1"><g transform="translate(173.827948, 34.217413)"><g><path d="M 2.703125 0 L 2.703125 -25.921875 L 14.15625 -25.921875 C 15.351562 -25.921875 16.457031 -25.675781 17.46875 -25.1875 C 18.476562 -24.695312 19.351562 -24.035156 20.09375 -23.203125 C 20.832031 -22.378906 21.398438 -21.457031 21.796875 -20.4375 C 22.203125 -19.414062 22.40625 -18.367188 22.40625 -17.296875 C 22.40625 -16.203125 22.21875 -15.148438 21.84375 -14.140625 C 21.46875 -13.128906 20.925781 -12.242188 20.21875 -11.484375 C 19.507812 -10.734375 18.679688 -10.15625 17.734375 -9.75 L 23.65625 0 L 18.109375 0 L 12.78125 -8.6875 L 7.734375 -8.6875 L 7.734375 0 Z M 7.734375 -13.109375 L 14.046875 -13.109375 C 14.679688 -13.109375 15.242188 -13.296875 15.734375 -13.671875 C 16.222656 -14.046875 16.613281 -14.550781 16.90625 -15.1875 C 17.195312 -15.820312 17.34375 -16.523438 17.34375 -17.296875 C 17.34375 -18.128906 17.171875 -18.851562 16.828125 -19.46875 C 16.484375 -20.09375 16.050781 -20.585938 15.53125 -20.953125 C 15.007812 -21.316406 14.441406 -21.5 13.828125 -21.5 L 7.734375 -21.5 Z M 7.734375 -13.109375 "/></g></g></g><g fill="#ffffff" fill-opacity="1"><g transform="translate(198.474475, 34.217413)"><g><path d="M 8.984375 0.359375 C 7.421875 0.359375 5.96875 0.101562 4.625 -0.40625 C 3.289062 -0.914062 2.140625 -1.691406 1.171875 -2.734375 L 2.1875 -4.484375 C 3.257812 -3.492188 4.335938 -2.769531 5.421875 -2.3125 C 6.503906 -1.863281 7.65625 -1.640625 8.875 -1.640625 C 10.351562 -1.640625 11.554688 -1.9375 12.484375 -2.53125 C 13.410156 -3.132812 13.875 -3.992188 13.875 -5.109375 C 13.875 -5.859375 13.644531 -6.4375 13.1875 -6.84375 C 12.738281 -7.25 12.09375 -7.578125 11.25 -7.828125 C 10.414062 -8.085938 9.414062 -8.363281 8.25 -8.65625 C 6.9375 -9.019531 5.832031 -9.398438 4.9375 -9.796875 C 4.050781 -10.203125 3.382812 -10.710938 2.9375 -11.328125 C 2.488281 -11.953125 2.265625 -12.765625 2.265625 -13.765625 C 2.265625 -15.003906 2.570312 -16.03125 3.1875 -16.84375 C 3.8125 -17.65625 4.664062 -18.273438 5.75 -18.703125 C 6.832031 -19.128906 8.039062 -19.34375 9.375 -19.34375 C 10.84375 -19.34375 12.132812 -19.109375 13.25 -18.640625 C 14.363281 -18.179688 15.273438 -17.539062 15.984375 -16.71875 L 14.78125 -15.03125 C 14.101562 -15.8125 13.296875 -16.390625 12.359375 -16.765625 C 11.421875 -17.148438 10.378906 -17.34375 9.234375 -17.34375 C 8.453125 -17.34375 7.707031 -17.238281 7 -17.03125 C 6.300781 -16.820312 5.722656 -16.476562 5.265625 -16 C 4.816406 -15.53125 4.59375 -14.878906 4.59375 -14.046875 C 4.59375 -13.367188 4.765625 -12.84375 5.109375 -12.46875 C 5.453125 -12.09375 5.960938 -11.773438 6.640625 -11.515625 C 7.328125 -11.253906 8.164062 -10.976562 9.15625 -10.6875 C 10.59375 -10.300781 11.847656 -9.90625 12.921875 -9.5 C 13.992188 -9.101562 14.820312 -8.585938 15.40625 -7.953125 C 15.988281 -7.328125 16.28125 -6.441406 16.28125 -5.296875 C 16.28125 -3.515625 15.609375 -2.125 14.265625 -1.125 C 12.929688 -0.132812 11.171875 0.359375 8.984375 0.359375 Z M 8.984375 0.359375 "/></g></g></g><g fill="#ffffff" fill-opacity="1"><g transform="translate(216.469659, 34.217413)"><g><path d="M 2.734375 0 L 2.734375 -19.015625 L 5.21875 -19.015625 L 5.21875 0 Z M 2.734375 -23 L 2.734375 -26.640625 L 5.21875 -26.640625 L 5.21875 -23 Z M 2.734375 -23 "/></g></g></g><g fill="#ffffff" fill-opacity="1"><g transform="translate(224.791971, 34.217413)"><g><path d="M 10.984375 0.359375 C 9.597656 0.359375 8.328125 0.0976562 7.171875 -0.421875 C 6.015625 -0.941406 5.003906 -1.664062 4.140625 -2.59375 C 3.273438 -3.519531 2.601562 -4.578125 2.125 -5.765625 C 1.65625 -6.960938 1.421875 -8.226562 1.421875 -9.5625 C 1.421875 -11.363281 1.820312 -13.003906 2.625 -14.484375 C 3.425781 -15.972656 4.546875 -17.15625 5.984375 -18.03125 C 7.421875 -18.90625 9.078125 -19.34375 10.953125 -19.34375 C 12.722656 -19.34375 14.289062 -18.9375 15.65625 -18.125 C 17.019531 -17.3125 18.03125 -16.207031 18.6875 -14.8125 L 16.28125 -14.046875 C 15.738281 -15.023438 14.988281 -15.785156 14.03125 -16.328125 C 13.070312 -16.878906 12.007812 -17.15625 10.84375 -17.15625 C 9.570312 -17.15625 8.410156 -16.828125 7.359375 -16.171875 C 6.316406 -15.515625 5.484375 -14.613281 4.859375 -13.46875 C 4.242188 -12.320312 3.9375 -11.019531 3.9375 -9.5625 C 3.9375 -8.125 4.253906 -6.820312 4.890625 -5.65625 C 5.523438 -4.488281 6.363281 -3.554688 7.40625 -2.859375 C 8.457031 -2.171875 9.613281 -1.828125 10.875 -1.828125 C 11.707031 -1.828125 12.503906 -1.972656 13.265625 -2.265625 C 14.035156 -2.554688 14.707031 -2.953125 15.28125 -3.453125 C 15.851562 -3.953125 16.234375 -4.492188 16.421875 -5.078125 L 18.875 -4.34375 C 18.53125 -3.445312 17.960938 -2.640625 17.171875 -1.921875 C 16.378906 -1.203125 15.453125 -0.640625 14.390625 -0.234375 C 13.335938 0.160156 12.203125 0.359375 10.984375 0.359375 Z M 10.984375 0.359375 "/></g></g></g><g fill="#ffffff" fill-opacity="1"><g transform="translate(245.196247, 34.217413)"><g><path d="M 18.71875 0 L 16.25 0 L 16.25 -10.625 C 16.25 -12.757812 15.867188 -14.367188 15.109375 -15.453125 C 14.359375 -16.535156 13.273438 -17.078125 11.859375 -17.078125 C 10.929688 -17.078125 10.007812 -16.835938 9.09375 -16.359375 C 8.1875 -15.890625 7.382812 -15.25 6.6875 -14.4375 C 6 -13.625 5.507812 -12.691406 5.21875 -11.640625 L 5.21875 0 L 2.734375 0 L 2.734375 -26.640625 L 5.21875 -26.640625 L 5.21875 -14.703125 C 5.96875 -16.117188 7.019531 -17.242188 8.375 -18.078125 C 9.726562 -18.921875 11.171875 -19.34375 12.703125 -19.34375 C 13.796875 -19.34375 14.722656 -19.144531 15.484375 -18.75 C 16.253906 -18.363281 16.875 -17.800781 17.34375 -17.0625 C 17.820312 -16.320312 18.171875 -15.457031 18.390625 -14.46875 C 18.609375 -13.488281 18.71875 -12.375 18.71875 -11.125 Z M 18.71875 0 "/></g></g></g><g fill="#ffffff" fill-opacity="1"><g transform="translate(266.841575, 34.217413)"><g><path d="M 10.953125 0.359375 C 9.585938 0.359375 8.320312 0.0976562 7.15625 -0.421875 C 5.988281 -0.941406 4.976562 -1.65625 4.125 -2.5625 C 3.269531 -3.476562 2.601562 -4.53125 2.125 -5.71875 C 1.65625 -6.914062 1.421875 -8.195312 1.421875 -9.5625 C 1.421875 -11.34375 1.828125 -12.972656 2.640625 -14.453125 C 3.460938 -15.941406 4.585938 -17.128906 6.015625 -18.015625 C 7.453125 -18.898438 9.082031 -19.34375 10.90625 -19.34375 C 12.78125 -19.34375 14.414062 -18.890625 15.8125 -17.984375 C 17.21875 -17.085938 18.320312 -15.90625 19.125 -14.4375 C 19.925781 -12.96875 20.328125 -11.351562 20.328125 -9.59375 C 20.328125 -9.40625 20.328125 -9.21875 20.328125 -9.03125 C 20.328125 -8.851562 20.316406 -8.710938 20.296875 -8.609375 L 4.015625 -8.609375 C 4.140625 -7.242188 4.519531 -6.03125 5.15625 -4.96875 C 5.800781 -3.914062 6.640625 -3.078125 7.671875 -2.453125 C 8.710938 -1.835938 9.84375 -1.53125 11.0625 -1.53125 C 12.300781 -1.53125 13.472656 -1.847656 14.578125 -2.484375 C 15.691406 -3.117188 16.46875 -3.945312 16.90625 -4.96875 L 19.046875 -4.375 C 18.660156 -3.476562 18.066406 -2.664062 17.265625 -1.9375 C 16.460938 -1.207031 15.519531 -0.640625 14.4375 -0.234375 C 13.351562 0.160156 12.191406 0.359375 10.953125 0.359375 Z M 3.9375 -10.40625 L 18 -10.40625 C 17.894531 -11.789062 17.519531 -13.003906 16.875 -14.046875 C 16.226562 -15.097656 15.390625 -15.921875 14.359375 -16.515625 C 13.328125 -17.109375 12.191406 -17.40625 10.953125 -17.40625 C 9.710938 -17.40625 8.578125 -17.109375 7.546875 -16.515625 C 6.523438 -15.921875 5.691406 -15.09375 5.046875 -14.03125 C 4.410156 -12.976562 4.039062 -11.769531 3.9375 -10.40625 Z M 3.9375 -10.40625 "/></g></g></g><g fill="#ffffff" fill-opacity="1"><g transform="translate(288.632905, 34.217413)"><g><path d="M 12.234375 -16.828125 C 10.578125 -16.773438 9.117188 -16.3125 7.859375 -15.4375 C 6.609375 -14.5625 5.726562 -13.359375 5.21875 -11.828125 L 5.21875 0 L 2.734375 0 L 2.734375 -19.015625 L 5.078125 -19.015625 L 5.078125 -14.453125 C 5.734375 -15.796875 6.601562 -16.878906 7.6875 -17.703125 C 8.769531 -18.523438 9.914062 -18.988281 11.125 -19.09375 C 11.375 -19.113281 11.585938 -19.125 11.765625 -19.125 C 11.953125 -19.125 12.109375 -19.113281 12.234375 -19.09375 Z M 12.234375 -16.828125 "/></g></g></g><g fill="#ffffff" fill-opacity="1"><g transform="translate(301.809907, 34.217413)"><g><path d="M 11.859375 -0.90625 C 11.671875 -0.832031 11.367188 -0.695312 10.953125 -0.5 C 10.535156 -0.3125 10.035156 -0.144531 9.453125 0 C 8.867188 0.144531 8.238281 0.21875 7.5625 0.21875 C 6.851562 0.21875 6.1875 0.0859375 5.5625 -0.171875 C 4.945312 -0.441406 4.457031 -0.847656 4.09375 -1.390625 C 3.726562 -1.941406 3.546875 -2.625 3.546875 -3.4375 L 3.546875 -17.046875 L 0.90625 -17.046875 L 0.90625 -19.015625 L 3.546875 -19.015625 L 3.546875 -25.4375 L 6.015625 -25.4375 L 6.015625 -19.015625 L 10.40625 -19.015625 L 10.40625 -17.046875 L 6.015625 -17.046875 L 6.015625 -4.125 C 6.066406 -3.445312 6.316406 -2.9375 6.765625 -2.59375 C 7.222656 -2.25 7.742188 -2.078125 8.328125 -2.078125 C 9.003906 -2.078125 9.617188 -2.191406 10.171875 -2.421875 C 10.734375 -2.660156 11.078125 -2.828125 11.203125 -2.921875 Z M 11.859375 -0.90625 "/></g></g></g></g></g></svg>